<svg width="735" height="576" viewBox="0 0 735 576" fill="none" xmlns="http://www.w3.org/2000/svg">
<path fill-rule="evenodd" clip-rule="evenodd" d="M327.743 2.85005C409.767 -11.8432 489.62 32.432 553.333 86.1396C623.793 145.535 690.076 219.666 694.165 311.729C698.38 406.635 654.702 507.684 574.304 558.29C501.846 603.898 413.209 547.452 327.743 542.369C251.923 537.859 168.579 577.548 108.868 530.605C45.8842 481.088 21.3727 390.785 34.375 311.729C46.0701 240.622 121.069 206.934 170.696 154.682C222.825 99.7978 253.234 16.1971 327.743 2.85005Z" fill="#AAE5AF"/>
<ellipse cx="230.5" cy="142" rx="8.5" ry="8" fill="#AF744C"/>
<ellipse cx="506.5" cy="141" rx="8.5" ry="8" fill="#AF744C"/>
<path d="M507 125L564.158 203H449.842L507 125Z" fill="white" fill-opacity="0.42"/>
<path d="M230.5 125L273.368 188H187.632L230.5 125Z" fill="white" fill-opacity="0.42"/>
<ellipse cx="368.5" cy="142" rx="8.5" ry="8" fill="#AF744C"/>
<path d="M368.5 128L410.502 184.25H326.498L368.5 128Z" fill="white" fill-opacity="0.42"/>
<line x1="508.5" y1="52.0224" x2="507.5" y2="119.022" stroke="#885C3F" stroke-width="3"/>
<line x1="232.5" y1="75.03" x2="231.5" y2="125.03" stroke="#885C3F" stroke-width="3"/>
<line x1="368.5" x2="368.5" y2="119" stroke="#885C3F" stroke-width="3"/>
<path d="M529 141.5C529 135.533 526.577 129.81 522.263 125.59C517.95 121.371 512.1 119 506 119C499.9 119 494.05 121.371 489.737 125.59C485.423 129.81 483 135.533 483 141.5L506 141.5H529Z" fill="#885C3F"/>
<path d="M391.5 141.633C391.5 135.666 389.077 129.943 384.763 125.723C380.45 121.504 374.6 119.133 368.5 119.133C362.4 119.133 356.55 121.504 352.237 125.723C347.923 129.943 345.5 135.666 345.5 141.633L368.5 141.633H391.5Z" fill="#885C3F"/>
<path d="M254 141.5C254 135.533 251.577 129.81 247.263 125.59C242.95 121.371 237.1 119 231 119C224.9 119 219.05 121.371 214.737 125.59C210.423 129.81 208 135.533 208 141.5L231 141.5H254Z" fill="#885C3F"/>
<rect x="447" y="185" width="69" height="52" fill="#E5AB6C"/>
<rect x="504" y="185" width="12" height="52" fill="#885C3F"/>
<rect x="466" y="185" width="9" height="18" fill="#AF744C"/>
<rect x="454" y="220" width="33" height="10" fill="white"/>
<line x1="464" y1="222.5" x2="477" y2="222.5" stroke="#8D7666"/>
<path d="M461 225H480" stroke="#8D7666"/>
<line x1="461" y1="227.5" x2="480" y2="227.5" stroke="#8D7666"/>
<rect x="447" y="262" width="69" height="52" fill="#E5AB6C"/>
<rect x="504" y="262" width="12" height="52" fill="#885C3F"/>
<rect x="466" y="262" width="9" height="18" fill="#AF744C"/>
<rect x="454" y="297" width="33" height="10" fill="white"/>
<line x1="464" y1="299.5" x2="477" y2="299.5" stroke="#8D7666"/>
<path d="M461 302H480" stroke="#8D7666"/>
<line x1="461" y1="304.5" x2="480" y2="304.5" stroke="#8D7666"/>
<rect x="525" y="262" width="69" height="52" fill="#E5AB6C"/>
<rect x="582" y="262" width="12" height="52" fill="#885C3F"/>
<rect x="544" y="262" width="9" height="18" fill="#AF744C"/>
<rect x="532" y="297" width="33" height="10" fill="white"/>
<line x1="542" y1="299.5" x2="555" y2="299.5" stroke="#8D7666"/>
<path d="M539 302H558" stroke="#8D7666"/>
<line x1="539" y1="304.5" x2="558" y2="304.5" stroke="#8D7666"/>
<rect x="525" y="185" width="69" height="52" fill="#E5AB6C"/>
<rect x="582" y="185" width="12" height="52" fill="#885C3F"/>
<rect x="544" y="185" width="9" height="18" fill="#AF744C"/>
<rect x="532" y="220" width="33" height="10" fill="white"/>
<line x1="542" y1="222.5" x2="555" y2="222.5" stroke="#8D7666"/>
<path d="M539 225H558" stroke="#8D7666"/>
<line x1="539" y1="227.5" x2="558" y2="227.5" stroke="#8D7666"/>
<line x1="433" y1="235" x2="611" y2="235" stroke="#757575" stroke-width="4"/>
<line x1="433" y1="315" x2="611" y2="315" stroke="#757575" stroke-width="4"/>
<path fill-rule="evenodd" clip-rule="evenodd" d="M622.913 382.563C630.716 386.888 624.041 403.194 630.939 409.013C635.852 413.156 643.876 400.767 649.017 404.582C653.299 407.76 649.712 416.177 647.003 420.935C644.414 425.48 634.219 424.389 634.723 429.681C635.543 438.278 649.138 441.022 649.738 449.639C650.111 454.995 640.812 454.231 636.644 457.24C631.721 460.793 628.856 468.948 622.913 469C616.99 469.052 614.109 460.813 609.074 457.481C604.632 454.543 594.448 456.09 595.023 450.546C595.99 441.225 608.888 438.247 611.978 429.468C613.126 426.209 603.603 425.603 604.925 422.421C606.411 418.844 614.952 424.464 615.653 420.623C617.125 412.548 607.995 405.206 609.533 397.145C610.821 390.393 617.185 379.387 622.913 382.563Z" fill="#127549" fill-opacity="0.83"/>
<path d="M603 458H643V496C643 498.209 641.209 500 639 500H607C604.791 500 603 498.209 603 496V458Z" fill="#885C3F"/>
<rect x="599" y="455" width="48" height="4" fill="#885C3F"/>
<line x1="0.00293254" y1="499" x2="682.003" y2="501" stroke="white" stroke-width="2"/>
<path d="M699 501H735" stroke="white" stroke-width="2"/>
<rect x="56" y="185" width="354" height="237" rx="8" fill="#D9D9D9"/>
<rect x="70" y="211" width="327" height="194" fill="#127549" fill-opacity="0.54"/>
<rect x="70" y="197" width="327" height="14" fill="#127549" fill-opacity="0.83"/>
<rect x="86" y="226" width="66" height="163" fill="white"/>
<rect x="163" y="226" width="141" height="164" fill="white"/>
<rect x="198" y="295" width="93" height="4" fill="#757575"/>
<rect x="198" y="325" width="93" height="4" fill="#757575"/>
<rect x="198" y="355" width="93" height="4" fill="#757575"/>
<rect x="197" y="273" width="57" height="4" fill="#757575"/>
<rect x="198" y="303" width="57" height="4" fill="#757575"/>
<rect x="198" y="364" width="57" height="4" fill="#757575"/>
<rect x="198" y="334" width="57" height="4" fill="#757575"/>
<ellipse cx="180.5" cy="361" rx="9.5" ry="9" fill="#AAE5AF"/>
<ellipse cx="180.5" cy="331" rx="9.5" ry="9" fill="#AAE5AF"/>
<ellipse cx="180.5" cy="301" rx="9.5" ry="9" fill="#AAE5AF"/>
<rect x="317" y="226" width="66" height="81" fill="white"/>
<rect x="366" y="273" width="10" height="30" fill="#AAE5AF"/>
<rect x="338" y="280" width="10" height="23" fill="#AAE5AF"/>
<rect x="352" y="262" width="10" height="41" fill="#AAE5AF"/>
<rect x="324" y="287" width="10" height="16" fill="#AAE5AF"/>
<rect x="317" y="314" width="66" height="76" fill="white"/>
<path d="M87 204C87 201.791 88.7909 200 91 200H146C148.209 200 150 201.791 150 204C150 206.209 148.209 208 146 208H118.5H91C88.7909 208 87 206.209 87 204Z" fill="#C4F5DF"/>
<path d="M355 204.5C355 206.433 352.985 208 350.5 208C348.015 208 346 206.433 346 204.5C346 202.567 348.015 201 350.5 201C352.985 201 355 202.567 355 204.5Z" fill="#C4F5DF"/>
<path d="M369 204.5C369 206.433 366.985 208 364.5 208C362.015 208 360 206.433 360 204.5C360 202.567 362.015 201 364.5 201C366.985 201 369 202.567 369 204.5Z" fill="#C4F5DF"/>
<path d="M383 204.5C383 206.433 380.985 208 378.5 208C376.015 208 374 206.433 374 204.5C374 202.567 376.015 201 378.5 201C380.985 201 383 202.567 383 204.5Z" fill="#C4F5DF"/>
<path d="M367.117 368.41C364.384 371.026 361.02 372.957 357.322 374.031C353.623 375.105 349.706 375.29 345.915 374.568C342.125 373.846 338.579 372.24 335.592 369.893C332.604 367.545 330.268 364.529 328.789 361.11C327.31 357.692 326.734 353.977 327.113 350.295C327.492 346.612 328.813 343.076 330.96 340C333.108 336.923 336.014 334.401 339.422 332.657C342.83 330.913 346.635 330 350.5 330V352.5L367.117 368.41Z" fill="#AAE5AF"/>
<path d="M373.5 353C373.5 355.955 373.631 358.77 372.5 361.5C371.369 364.23 368.999 366.821 366.91 368.91L350.5 353H373.5Z" fill="#107243"/>
<path d="M351.211 329C354.297 329 357.353 329.582 360.204 330.713C363.055 331.843 365.646 333.501 367.828 335.59C370.01 337.679 371.741 340.16 372.922 342.89C374.103 345.619 374.711 348.545 374.711 351.5L351.211 351.5V329Z" fill="#02542D"/>
<rect x="324" y="280" width="10" height="4" fill="#107243"/>
<rect x="338" y="273" width="10" height="4" fill="#107243"/>
<rect x="352" y="256" width="10" height="4" fill="#107243"/>
<rect x="366" y="266" width="10" height="4" fill="#107243"/>
<ellipse cx="180.5" cy="271" rx="9.5" ry="9" fill="#AAE5AF"/>
<rect x="194" y="241" width="82" height="10" fill="#D9D9D9"/>
<rect x="197" y="264" width="93" height="4" fill="#757575"/>
<rect x="387" y="396" width="69" height="52" fill="#E5AB6C"/>
<rect x="444" y="396" width="12" height="52" fill="#885C3F"/>
<rect x="406" y="396" width="9" height="18" fill="#AF744C"/>
<rect x="394" y="431" width="33" height="10" fill="white"/>
<line x1="404" y1="433.5" x2="417" y2="433.5" stroke="#8D7666"/>
<path d="M401 436H420" stroke="#8D7666"/>
<line x1="401" y1="438.5" x2="420" y2="438.5" stroke="#8D7666"/>
<rect x="456" y="396" width="69" height="52" fill="#E5AB6C"/>
<rect x="513" y="396" width="12" height="52" fill="#885C3F"/>
<rect x="475" y="396" width="9" height="18" fill="#AF744C"/>
<rect x="463" y="431" width="33" height="10" fill="white"/>
<line x1="473" y1="433.5" x2="486" y2="433.5" stroke="#8D7666"/>
<path d="M470 436H489" stroke="#8D7666"/>
<line x1="470" y1="438.5" x2="489" y2="438.5" stroke="#8D7666"/>
<rect x="380" y="448" width="69" height="52" fill="#E5AB6C"/>
<rect x="437" y="448" width="12" height="52" fill="#885C3F"/>
<rect x="399" y="448" width="9" height="18" fill="#AF744C"/>
<rect x="387" y="483" width="33" height="10" fill="white"/>
<line x1="397" y1="485.5" x2="410" y2="485.5" stroke="#8D7666"/>
<path d="M394 488H413" stroke="#8D7666"/>
<line x1="394" y1="490.5" x2="413" y2="490.5" stroke="#8D7666"/>
<rect x="449" y="448" width="69" height="52" fill="#E5AB6C"/>
<rect x="506" y="448" width="12" height="52" fill="#885C3F"/>
<rect x="468" y="448" width="9" height="18" fill="#AF744C"/>
<rect x="456" y="483" width="33" height="10" fill="white"/>
<line x1="466" y1="485.5" x2="479" y2="485.5" stroke="#8D7666"/>
<path d="M463 488H482" stroke="#8D7666"/>
<line x1="463" y1="490.5" x2="482" y2="490.5" stroke="#8D7666"/>
<rect x="518" y="448" width="69" height="52" fill="#E5AB6C"/>
<rect x="575" y="448" width="12" height="52" fill="#885C3F"/>
<rect x="537" y="448" width="9" height="18" fill="#AF744C"/>
<rect x="525" y="483" width="33" height="10" fill="white"/>
<line x1="535" y1="485.5" x2="548" y2="485.5" stroke="#8D7666"/>
<path d="M532 488H551" stroke="#8D7666"/>
<line x1="532" y1="490.5" x2="551" y2="490.5" stroke="#8D7666"/>
</svg>
