<svg width="152" height="126" viewBox="0 0 152 126" fill="none" xmlns="http://www.w3.org/2000/svg">
<ellipse cx="76" cy="63" rx="76" ry="63" fill="white"/>
<path d="M79 34L112 46.5V52.5V80.5L73 98L41 84.5V50L79 34Z" fill="#E5AB6C"/>
<path d="M38 85C38 86.1046 38.8954 87 40 87C41.1046 87 42 86.1046 42 85H40H38ZM40 50H38V85H40H42V50H40Z" fill="#885C3F"/>
<path d="M110 81C110 82.1046 110.895 83 112 83C113.105 83 114 82.1046 114 81H112H110ZM112 46H110V81H112H114V46H112Z" fill="#885C3F"/>
<path d="M72 63L72 98" stroke="#885C3F" stroke-width="4" stroke-linecap="round"/>
<path d="M40 85L72.3077 98.4615" stroke="#885C3F" stroke-width="4" stroke-linecap="round"/>
<path d="M40 50L72.3077 63.4615" stroke="#885C3F" stroke-width="4" stroke-linecap="round"/>
<path d="M80 32L112 45.5" stroke="#885C3F" stroke-width="4" stroke-linecap="round"/>
<path d="M112.8 82.833C113.812 82.391 114.275 81.2122 113.833 80.1998C113.391 79.1875 112.212 78.7251 111.2 79.167L112 81L112.8 82.833ZM112 81L111.2 79.167L71.1998 96.6286L71.9999 98.4615L72.8001 100.295L112.8 82.833L112 81Z" fill="#885C3F"/>
<path d="M112 46L71.9999 63.4615" stroke="#885C3F" stroke-width="4" stroke-linecap="round"/>
<path d="M80 32L39.9999 49.4615" stroke="#885C3F" stroke-width="4" stroke-linecap="round"/>
<path d="M46.8943 72.9999L56.9999 76.9999" stroke="#885C3F" stroke-width="4"/>
<path d="M46.9998 79.8422L57.1054 83.8422" stroke="#885C3F" stroke-width="4"/>
<path d="M63.6582 40.0337L92.5 54.0001" stroke="#885C3F" stroke-width="4" stroke-linecap="round"/>
<line x1="92" y1="55" x2="92" y2="71" stroke="#885C3F" stroke-width="4"/>
</svg>
