<svg width="152" height="126" viewBox="0 0 152 126" fill="none" xmlns="http://www.w3.org/2000/svg">
<ellipse cx="76" cy="63" rx="76" ry="63" fill="white"/>
<line x1="99" y1="52" x2="99" y2="75" stroke="black" stroke-width="2"/>
<line x1="94.5" y1="52" x2="94.5" y2="75" stroke="black" stroke-width="3"/>
<line x1="89" y1="52" x2="89" y2="75" stroke="black" stroke-width="2"/>
<line x1="84.5" y1="52" x2="84.5" y2="75" stroke="black"/>
<line x1="80" y1="52" x2="80" y2="75" stroke="black" stroke-width="2"/>
<line x1="75.5" y1="52" x2="75.5" y2="75" stroke="black" stroke-width="3"/>
<line x1="69" y1="52" x2="69" y2="75" stroke="black" stroke-width="2"/>
<line x1="65" y1="52" x2="65" y2="75" stroke="black" stroke-width="2"/>
<line x1="60.5" y1="52" x2="60.5" y2="75" stroke="black" stroke-width="3"/>
<line x1="43" y1="46.5" x2="53" y2="46.5" stroke="black" stroke-width="3"/>
<line x1="44.5" y1="47" x2="44.5" y2="57" stroke="black" stroke-width="3"/>
<line y1="-1.5" x2="10" y2="-1.5" transform="matrix(-1 0 0 1 108 48)" stroke="black" stroke-width="3"/>
<line y1="-1.5" x2="10" y2="-1.5" transform="matrix(0 1 1 0 108 47)" stroke="black" stroke-width="3"/>
<line y1="-1.5" x2="10" y2="-1.5" transform="matrix(1 0 0 -1 43 78)" stroke="black" stroke-width="3"/>
<line y1="-1.5" x2="10" y2="-1.5" transform="matrix(0 -1 -1 0 43 79)" stroke="black" stroke-width="3"/>
<line x1="108" y1="78.5" x2="98" y2="78.5" stroke="black" stroke-width="3"/>
<line x1="106.5" y1="78" x2="106.5" y2="68" stroke="black" stroke-width="3"/>
<line x1="52.5" y1="52" x2="52.5" y2="75" stroke="black" stroke-width="3"/>
<line x1="56.5" y1="52" x2="56.5" y2="75" stroke="black"/>
</svg>
