<svg width="64" height="63" viewBox="0 0 64 63" fill="none" xmlns="http://www.w3.org/2000/svg">
<path d="M57.7803 14.3652V40.6338L31.5 53.8799L5.21973 40.6338V14.3652L31.5 1.11914L57.7803 14.3652Z" stroke="white" stroke-width="2"/>
<path d="M10.5944 42.3379L10.9106 28.411L21.3469 22.8402L21.9794 13.6485L31.1506 8.91331L41.5869 14.2055L41.5 23L52.9719 29.2466V42.3379L31.7831 53.4794L10.5944 42.3379Z" fill="#D9D9D9"/>
<path d="M11 29L11 42.5" stroke="white" stroke-width="2" stroke-linecap="round"/>
<path d="M11.5431 28.968L31.4668 37.8812" stroke="white" stroke-width="2" stroke-linecap="round"/>
<path d="M31 54V38" stroke="white" stroke-width="2"/>
<path d="M52 29V43" stroke="white" stroke-width="2" stroke-linecap="round"/>
<path d="M51.8489 28.968L31.9251 37.8812" stroke="white" stroke-width="2" stroke-linecap="round"/>
<path d="M21 33V48" stroke="white" stroke-width="2" stroke-linecap="round"/>
<path d="M42 33V48.5" stroke="white" stroke-width="2" stroke-linecap="round"/>
<path d="M41 23L52 29" stroke="white" stroke-width="2" stroke-linecap="round"/>
<path d="M31 29L42 33" stroke="white" stroke-width="2" stroke-linecap="round"/>
<path d="M32.4156 27.2856L41.5869 23.1186" stroke="white" stroke-width="2" stroke-linecap="round"/>
<path d="M21 24L11 29" stroke="white" stroke-width="2" stroke-linecap="round"/>
<path d="M31 29V20" stroke="white" stroke-width="2" stroke-linecap="round"/>
<path d="M21 23V14" stroke="white" stroke-width="2" stroke-linecap="round"/>
<path d="M41 23V14" stroke="white" stroke-width="2" stroke-linecap="round"/>
<path d="M21.1726 14.4839L31.4668 18.9405" stroke="white" stroke-width="2" stroke-linecap="round"/>
<path d="M40.5 14.7581L31.4933 18.9406" stroke="white" stroke-width="2" stroke-linecap="round"/>
<path d="M30 9L21 14" stroke="white" stroke-width="2" stroke-linecap="round"/>
<path d="M30 9L41 14" stroke="white" stroke-width="2" stroke-linecap="round"/>
<path d="M5.12878 45L28.1288 57.1616" stroke="white" stroke-width="2"/>
<path d="M36 56.7717L57 46.2208" stroke="white" stroke-width="2"/>
</svg>
